<?xml version="1.0" encoding="utf-8"?>
<!-- Generator: Adobe Illustrator 22.0.1, SVG Export Plug-In . SVG Version: 6.00 Build 0)  -->
<svg version="1.1" id="Layer_1" xmlns="http://www.w3.org/2000/svg" xmlns:xlink="http://www.w3.org/1999/xlink" x="0px" y="0px"
	 viewBox="0 0 657.1 98.3" style="enable-background:new 0 0 657.1 98.3;" xml:space="preserve">
<style type="text/css">
	.st0{fill:#FF0400;}
	.st1{fill:#FF0000;}
	.st2{fill:#FFFFFF;}
</style>
<g>
	<g>
		<path class="st0" d="M505.9,15l-15.7,34h-9.6l-15.7-34h8.3l12.2,28.1L497.6,15H505.9z"/>
	</g>
	<g>
		<path class="st0" d="M531.7,15v34h-7.8V15H531.7z"/>
	</g>
	<g>
		<path class="st0" d="M583.3,49H553V15h29.8l-3.1,6h-18.9v7.5h20.6l-3.1,6h-17.5v8.4h19.3L583.3,49z"/>
	</g>
	<g>
		<path class="st0" d="M656.2,15l-12,34h-9.2L628,25.8L621.1,49h-9.2l-12-34h8.3l8.4,25.8l7.7-25.8h7.4l7.7,25.8l8.4-25.8H656.2z"/>
	</g>
	<path class="st1" d="M164.6,4.7l-13-6l-15.2,1.6c-0.1,0-0.1,0-0.2,0.1l-22.7,19.3l-3.3-3.7c-0.1-0.1-0.2-0.1-0.3-0.2l-18.5-4.4
		l-0.1,0c-0.2,0-17.5,1.7-17.5,1.7c-0.1,0-0.2,0.1-0.2,0.2L52.3,51.2c-0.1,0.1-0.1,0.3,0,0.4c0,0,6.3,15.4,6.3,15.4
		c0.1,0.2,0.3,0.3,0.5,0.3c0,0,3.9-0.4,3.9-0.4l0.6-1.1l-3.6,0.3l19.3-35.1c0,0,16.3,23.7,16.3,23.7c0,0,0.1,0.1,0.1,0.1
		c0.1,0.1,0.2,0.1,0.3,0.1l11-0.2L89.4,96.1c0,0.1,0,0.2,0,0.3c0.1,0.1,0.1,0.1,0.2,0.2l22.3,1.8l16.4-4.5c0.1,0,0.3-0.1,0.3-0.3
		L159,26.4c0.1-0.1,0.1-0.3,0-0.4c-0.1-0.1-0.2-0.2-0.3-0.3l-3.6-0.9l9.8-7.9c0.3-0.2,0.4-0.5,0.4-0.8V5.8
		C165.3,5.3,165,4.9,164.6,4.7z M92.6,12.8l17,4.1l3,3.4l-9,7.6L92.6,12.8z M157.8,26.5l-30,66.3l-15.5,4.2l32.3-74L157.8,26.5z
		 M153.8,24.5l-9.4-2.5l-0.1,0h0c0,0-0.1,0-0.2,0c-0.1,0-0.1,0-0.2,0.1L107.3,54l-9.8,0.2L151.3,12l12.5,4.5L153.8,24.5z
		 M164.3,15.7l-12.6-4.6V-0.1l12.6,5.8V15.7z"/>
</g>
<g>
	<g>
		<path class="st2" d="M232.7,21h-12.9v28H212V21h-12.9l3.1-6h30.4V21z"/>
	</g>
	<g>
		<path class="st2" d="M279.5,49l-7.2-11.5c0,0-0.1,0-0.2,0H260V49h-7.8V15h21c9.2,0,14,4.4,14,11.3c0,5.3-2.5,8.5-7,10.1l8.1,12.6
			H279.5z M260,31.5h12.9c4.8,0,6.3-2.5,6.3-5.3c0-2.9-1.5-5.2-6.3-5.2H260V31.5z"/>
	</g>
	<g>
		<path class="st2" d="M333.6,42.3H315L312,49h-8.3l15.7-34h9.6l15.7,34h-8.3L333.6,42.3z M331,36.3l-6.7-15.4l-6.7,15.4H331z"/>
	</g>
	<g>
		<path class="st2" d="M398.7,32c0,13.5-9.9,17-20.5,17h-15.4V15h15.4C388.8,15,398.7,18.4,398.7,32z M390.6,32
			c0-8.7-5.1-11-13.3-11h-6.8v21.9h6.8C385.5,42.9,390.6,40.8,390.6,32z"/>
	</g>
	<g>
		<path class="st2" d="M442.5,30.6l1.3-2.8h-21.1c1.5-5.3,6.1-6.8,12.7-6.8h6.8l4.7-0.1l3.1-6h-15.4c-10.2,0-19.8,3.2-20.4,15.6
			L442.5,30.6z"/>
		<path class="st2" d="M442.3,42.9h-6.8c-6.6,0-11.3-1.5-12.7-6.8h17.1l1.3-2.8l-26.9,0c0.7,12.4,10.2,15.6,20.4,15.6h15.4l-3.1-6
			L442.3,42.9z"/>
	</g>
	<g>
		<path class="st2" d="M326.9,65.4v16.3h-3.7V68.8l-5.5,12.9h-3.6l-5.5-12.9v12.9h-3.7V65.4h5.8l5.1,12.5l5.2-12.5H326.9z"/>
		<path class="st2" d="M361.5,78.5h-8.9l-1.4,3.2h-4l7.5-16.3h4.6l7.5,16.3h-4L361.5,78.5z M360.2,75.6l-3.2-7.4l-3.2,7.4H360.2z"/>
		<path class="st2" d="M400.2,81.7l-3.4-5.5c0,0-0.1,0-0.1,0h-5.8v5.5h-3.7V65.4h10.1c4.4,0,6.7,2.1,6.7,5.4c0,2.6-1.2,4.1-3.4,4.8
			l3.9,6H400.2z M390.8,73.3h6.2c2.3,0,3-1.2,3-2.5c0-1.4-0.7-2.5-3-2.5h-6.2V73.3z"/>
		<path class="st2" d="M432.3,74.1l-3.5,3.2v4.4h-3.7V65.4h3.7v7.7l8.3-7.7h4.9l-7,6.4l7.3,9.9h-4.4L432.3,74.1z"/>
		<path class="st2" d="M477.2,81.7h-14.5V65.4H477v2.9h-10.5v3.6h9.9v2.9h-9.9v4h10.8V81.7z"/>
		<path class="st2" d="M513.6,68.3h-6.2v13.4h-3.7V68.3h-6.2v-2.9h16.1V68.3z"/>
		<path class="st2" d="M550.4,76.6c0,3.5-2.9,5.4-8.7,5.4c-5.6,0-8.6-2.1-8.6-5.4h3.9c0.1,1.7,2,2.6,5,2.6c3.1,0,4.4-0.8,4.4-2
			c0-1.7-2.5-1.5-7-2.3c-4.4-0.7-5.8-2.1-5.8-4.7c0-2.7,1.8-5.1,7.8-5.1c5.7,0,8,2.2,8.1,5.1h-3.6c-0.1-1.2-1.5-2.2-4.5-2.2
			c-3.3,0-4.1,0.9-4.1,2c0,1.5,2.7,1.6,5.6,2C547.3,72.6,550.4,73,550.4,76.6z"/>
	</g>
	<path class="st2" d="M90.2,92l15.4-35.3c0-0.1,0-0.2,0-0.3c0,0,0-0.1-0.1-0.2l-0.9-1.2l0,0c-0.4,0-0.7,0-1.3,0l0.8,1l-11.5,0.8
		L79.7,39.6l5.5,0.2c-0.2-0.3-0.5-0.7-0.7-1l-5.8-0.3c-0.2,0-0.3,0.1-0.4,0.3L63.5,66l0,0L63,67l0,0l-4.5,8.3L43.6,37.1l15.7,1.8
		l0.5-0.9l-12-1.4l13-0.4l0,0l0.6-1L32.3,36l-13.7-0.9l39-1.8l4.8,0.2l0.6-1L59,32.4l-0.6,0l10.9-18.3l3.6,0.7l0.5-0.9l-3.6-0.7
		L3.5,18.6c-0.1,0-0.2,0.1-0.2,0.1c-0.1,0.1-0.1,0.2,0,0.3l6.3,16.4c0,0,0,0,0,0.1c0.1,0,0.1,0,0.2,0l20.1,1.4l-7.4,0.4
		c-0.1,0-0.2,0.1-0.2,0.1c-0.1,0.1-0.1,0.2,0,0.3l21.2,55.1c0,0.1,0.1,0.2,0.3,0.2l31.2,2.4l15-3.1C90,92.3,90.1,92.1,90.2,92z
		 M75,94.3l17.7-36.4l11.6-0.8l-15,34.3L75,94.3z"/>
</g>
</svg>
